<svg xmlns:xlink="http://www.w3.org/1999/xlink" xmlns="http://www.w3.org/2000/svg" width="2862" height="317" viewBox="0 0 2862 317" fill="none"><path d="M25.0227 167.966V155.013H32.6555V150.3H11.832V155.013H19.4648V167.966H25.0227Z" fill="#C8CACE"/><path d="M40.2524 160.58V150.3H34.8798V167.966H39.6225L48.8856 157.686V167.966H54.2582V150.3H49.5155L40.2524 160.58Z" fill="#C8CACE"/><path d="M72.3328 161.397V167.966H77.7054V150.3H72.3328V156.758H63.6996V150.3H58.327V167.966H63.6996V161.397H72.3328Z" fill="#C8CACE"/><path d="M92.6676 167.966C93.8903 167.966 95.0019 167.855 96.0394 167.558C98.8183 166.778 100.634 164.514 100.634 161.434C100.634 158.502 99.0777 156.461 96.5952 155.533C95.4095 155.088 94.0015 155.05 92.6676 155.05H87.1468V150.3H81.7742V167.966H92.6676ZM91.7413 159.207C92.4823 159.207 93.1863 159.207 93.8162 159.43C94.7055 159.727 95.2242 160.469 95.2242 161.36C95.2242 162.288 94.7055 163.067 93.8533 163.438C93.2604 163.698 92.6676 163.698 91.7413 163.698H87.1468V159.207H91.7413Z" fill="#C8CACE"/><path d="M110.267 161.286L116.677 167.966H123.828L114.898 158.762L123.495 150.3H116.751L110.267 156.943H108.785V150.3H103.412V167.966H108.785V161.286H110.267Z" fill="#C8CACE"/><path d="M134.883 149.817C127.658 149.817 123.323 153.9 123.323 159.17C123.323 164.44 127.658 168.523 134.883 168.523C142.071 168.523 146.406 164.44 146.406 159.17C146.406 153.9 142.071 149.817 134.883 149.817ZM134.883 164.218C131.289 164.218 128.992 162.065 128.992 159.17C128.992 156.275 131.289 154.16 134.883 154.16C138.44 154.16 140.774 156.275 140.774 159.17C140.774 162.065 138.44 164.218 134.883 164.218Z" fill="#C8CACE"/><path d="M164.299 149.298H158.926V151.079C152.183 151.228 148.144 154.086 148.144 159.133C148.144 164.18 152.183 166.816 158.926 166.964V168.745H164.299V166.964C171.079 166.816 175.118 164.18 175.118 159.133C175.118 154.086 171.079 151.228 164.299 151.079V149.298ZM158.926 163.178C155.221 163.03 153.591 161.508 153.591 159.133C153.591 156.758 155.221 155.05 158.926 154.902V163.178ZM164.299 154.902C168.041 155.05 169.634 156.758 169.634 159.133C169.634 161.508 168.041 163.03 164.299 163.178V154.902Z" fill="#C8CACE"/><path d="M192.993 149.298H187.62V151.079C180.877 151.228 176.838 154.086 176.838 159.133C176.838 164.18 180.877 166.816 187.62 166.964V168.745H192.993V166.964C199.773 166.816 203.812 164.18 203.812 159.133C203.812 154.086 199.773 151.228 192.993 151.079V149.298ZM187.62 163.178C183.915 163.03 182.285 161.508 182.285 159.133C182.285 156.758 183.915 155.05 187.62 154.902V163.178ZM192.993 154.902C196.735 155.05 198.328 156.758 198.328 159.133C198.328 161.508 196.735 163.03 192.993 163.178V154.902Z" fill="#C8CACE"/><g clip-path="url(#clip0_9932_5780)"><path fill-rule="evenodd" clip-rule="evenodd" d="M379.538 158.518C379.538 154.146 376.697 151.534 372.437 151.515C368.121 151.515 365.336 154.395 365.336 158.48C365.336 162.872 368.176 165.484 372.437 165.484C376.753 165.484 379.538 162.6 379.538 158.518ZM377.04 158.499C377.04 161.343 375.277 163.259 372.456 163.259V163.256C369.426 163.237 367.835 161.148 367.835 158.499C367.835 155.674 369.579 153.759 372.419 153.739C375.449 153.759 377.04 155.848 377.04 158.499Z" fill="#C8CACE"/><path fill-rule="evenodd" clip-rule="evenodd" d="M408.265 158.518C408.265 154.146 405.425 151.534 401.164 151.515C396.847 151.515 394.064 154.395 394.062 158.48C394.062 162.872 396.903 165.484 401.164 165.484C405.481 165.484 408.265 162.6 408.265 158.518ZM405.767 158.499C405.767 161.343 404.004 163.259 401.183 163.259L401.183 163.256C398.154 163.237 396.563 161.148 396.562 158.499C396.562 155.674 398.306 153.759 401.147 153.739C404.176 153.759 405.767 155.848 405.767 158.499Z" fill="#C8CACE"/><path fill-rule="evenodd" clip-rule="evenodd" d="M410.746 165.268V151.725H416.502C419.457 151.725 420.971 152.846 420.971 155.091C420.971 156.638 420.365 157.664 419.002 158.206C420.63 158.496 421.369 159.56 421.369 161.32C421.369 164.126 419.4 165.268 416.18 165.268H410.746ZM416.162 157.451C417.658 157.451 418.604 156.774 418.604 155.613C418.604 154.53 417.903 153.949 416.218 153.949H413.113V157.451H416.162ZM416.334 163.043C418.15 163.043 418.985 162.443 418.985 161.146C418.985 159.85 418.039 159.347 416.372 159.347H413.116V163.043H416.334Z" fill="#C8CACE"/><path fill-rule="evenodd" clip-rule="evenodd" d="M428.224 155.942H426.425V151.725H424.059V165.268H428.246C432.109 165.268 434.192 163.681 434.192 160.528C434.192 157.471 432.427 155.942 428.224 155.942ZM426.425 163.043V158.167H428.432C430.743 158.167 431.746 158.805 431.746 160.469C431.746 162.308 430.61 163.043 428.394 163.043H426.425Z" fill="#C8CACE"/><path d="M439.037 159.405H445.135L445.138 157.18H439.04V153.949H445.838V151.725H436.67V165.268H446.043V163.043H439.037V159.405Z" fill="#C8CACE"/><path fill-rule="evenodd" clip-rule="evenodd" d="M384.383 161.05V165.268H382.016V151.725H386.427C390.611 151.725 392.395 153.253 392.395 156.31C392.395 159.464 390.312 161.05 386.427 161.05H384.383ZM384.383 153.949V158.825H386.598C388.795 158.825 389.93 158.089 389.93 156.252C389.93 154.588 388.947 153.949 386.636 153.949H384.383Z" fill="#C8CACE"/><path fill-rule="evenodd" clip-rule="evenodd" d="M351.91 163.043C352.667 161.205 353.216 158.651 353.273 154.53L353.311 151.725H362.627V163.043H364.161V167.783H361.946V165.268H352.686V167.783H350.471V163.043H351.91ZM354.22 163.043H360.26V153.949H355.47V154.588C355.394 158.128 354.975 160.915 354.22 163.043Z" fill="#C8CACE"/><path d="M343.655 151.532C341.553 151.532 340.02 152.17 339.262 152.731L339.26 156.098C340.037 154.898 341.647 153.719 343.653 153.757C345.055 153.796 346.153 154.298 346.153 155.556C346.153 156.563 345.565 157.394 343.862 157.394H341.872V159.387H343.88C345.943 159.387 346.815 159.948 346.815 161.147C346.815 162.522 345.527 163.218 343.918 163.238C341.474 163.257 339.751 162.174 338.938 160.799V163.779C339.642 164.591 341.474 165.482 343.88 165.463C347.44 165.443 349.276 163.644 349.276 161.303C349.276 159.522 348.294 158.439 346.249 158.129C347.783 157.568 348.597 156.524 348.597 154.937C348.597 152.557 346.627 151.552 343.655 151.532Z" fill="#C8CACE"/><path d="M287.882 162.846C288.742 162.851 289.59 162.635 290.347 162.218L290.979 161.87L292.827 163.253C291.608 164.579 289.811 165.308 287.753 165.308C285.785 165.308 283.987 164.598 282.7 163.321C281.414 162.043 280.705 160.267 280.705 158.337C280.705 156.408 281.424 154.658 282.708 153.426C283.992 152.194 285.79 151.515 287.771 151.515C289.598 151.515 291.195 152.079 292.391 153.146L292.527 153.263L290.479 154.796C289.722 154.246 288.812 153.957 287.882 153.97C285.308 153.97 283.439 155.837 283.439 158.408C283.439 160.98 285.308 162.846 287.882 162.846Z" fill="#C8CACE"/><path fill-rule="evenodd" clip-rule="evenodd" d="M301.58 156.927H298.105V153.926H303.651L306.64 151.688H295.25V165.129H301.207C304.551 165.129 306.469 163.59 306.469 160.907C306.472 158.341 304.734 156.927 301.58 156.927ZM301.082 162.891H298.105V159.165H301.082C302.895 159.165 303.738 159.789 303.738 161.028C303.738 162.295 302.841 162.891 301.082 162.891Z" fill="#C8CACE"/><path d="M319.133 151.688L316.144 153.926H311.984V157.212H318.082V159.45H311.984V162.891H319.133V165.129H309.129V151.688H319.133Z" fill="#C8CACE"/><path fill-rule="evenodd" clip-rule="evenodd" d="M321.793 151.688H327.24C330.716 151.688 332.873 153.531 332.873 156.498C332.873 159.465 330.713 161.322 327.238 161.322H324.648V165.129H321.793V151.688ZM324.648 159.084H327.179C329.008 159.084 330.015 158.168 330.015 156.505C330.015 154.842 329.008 153.926 327.179 153.926H324.648V159.084Z" fill="#C8CACE"/><path d="M271.674 151.633C272.194 152.318 272.639 153.067 272.995 153.865L262.956 161.406L258.762 158.726V155.502L262.956 158.182L271.674 151.633Z" fill="#C8CACE"/><path d="M254.483 158.499C254.483 158.355 254.486 158.211 254.493 158.068L251.951 157.938C251.943 158.125 251.938 158.311 251.938 158.499C251.938 161.6 253.17 164.407 255.165 166.44L256.967 164.603C255.434 163.039 254.483 160.88 254.483 158.499Z" fill="#C8CACE"/><path d="M262.955 149.864C263.097 149.864 263.238 149.869 263.378 149.876L263.505 147.285C263.323 147.276 263.139 147.271 262.955 147.271C259.913 147.271 257.158 148.527 255.164 150.56L256.966 152.396C258.501 150.832 260.619 149.864 262.955 149.864Z" fill="#C8CACE"/><path d="M262.956 167.135C262.815 167.135 262.674 167.132 262.533 167.125L262.406 169.715C262.589 169.724 262.772 169.729 262.956 169.729C265.998 169.729 268.753 168.473 270.747 166.44L268.945 164.604C267.41 166.166 265.292 167.135 262.956 167.135Z" fill="#C8CACE"/><path d="M267.732 151.371L269.875 149.762C267.983 148.203 265.577 147.271 262.955 147.271V149.865C264.726 149.864 266.371 150.421 267.732 151.371Z" fill="#C8CACE"/><path d="M273.974 158.5C273.974 157.813 273.914 157.141 273.798 156.487L271.426 158.269C271.428 158.345 271.43 158.422 271.43 158.499C271.43 161.034 270.352 163.318 268.639 164.899L270.349 166.825C272.575 164.772 273.974 161.802 273.974 158.5Z" fill="#C8CACE"/><path d="M262.955 167.136C260.468 167.136 258.227 166.037 256.676 164.291L254.785 166.034C256.801 168.304 259.715 169.73 262.955 169.73V167.136Z" fill="#C8CACE"/><path d="M257.274 152.099L255.563 150.172C253.336 152.226 251.938 155.196 251.938 158.499H254.483C254.484 155.963 255.561 153.68 257.274 152.099Z" fill="#C8CACE"/></g><g clip-path="url(#clip1_9932_5780)"><path d="M582.587 171.18H586.391L591.693 151.47V171.18H595.958V145.131H590.079L584.777 164.264L579.474 145.131H573.48V171.18H577.169V151.47L582.587 171.18ZM613.825 158.271C613.825 153.66 611.519 151.931 606.793 151.931C603.796 151.931 601.491 152.853 600.108 153.66V157.348C601.26 156.426 603.912 155.504 606.217 155.504C608.407 155.504 609.329 156.311 609.329 158.271V159.308H608.638C601.837 159.308 598.724 161.613 598.724 165.417C598.724 169.22 601.03 171.41 604.488 171.41C607.139 171.41 608.292 170.603 609.099 169.681H609.329C609.329 170.142 609.56 170.834 609.675 171.18H614.055C613.94 169.681 613.825 168.068 613.825 166.569V158.271ZM609.329 166.684C608.753 167.491 607.715 168.183 606.102 168.183C604.257 168.183 603.335 167.03 603.335 165.417C603.335 163.227 604.834 162.42 608.753 162.42H609.445V166.684H609.329ZM621.548 152.277H617.398V176.597H621.894V168.99C623.046 170.719 624.66 171.525 626.62 171.525C631 171.525 633.997 168.068 633.997 161.728C633.997 155.389 631.115 151.931 626.85 151.931C624.775 151.931 623.046 152.853 621.778 154.697L621.548 152.277ZM625.352 168.068C623.046 168.068 621.778 166.108 621.778 161.844C621.778 157.464 623.046 155.504 625.582 155.504C628.003 155.504 629.271 157.464 629.271 161.728C629.271 166.108 628.003 168.068 625.352 168.068ZM647.945 171.18H653.016L645.87 161.037L652.209 152.277H647.714L641.374 161.037V152.277H636.879V171.18H641.374V161.959L647.945 171.18ZM668.001 169.912V166.223C666.618 167.146 664.313 167.952 662.123 167.952C658.895 167.952 657.627 166.454 657.397 163.227H668.117V160.806C668.117 154.236 665.235 151.816 660.739 151.816C655.322 151.816 652.671 155.965 652.671 161.728C652.671 168.298 655.898 171.525 661.546 171.525C664.659 171.525 666.733 170.834 668.001 169.912ZM660.739 155.504C662.93 155.504 663.621 157.348 663.621 159.654V159.999H657.397C657.512 157.003 658.665 155.504 660.739 155.504ZM684.139 155.85V152.277H669.154V155.85H674.456V171.18H678.952V155.85H684.139Z" fill="#C8CACE"/><path fill-rule="evenodd" clip-rule="evenodd" d="M527.143 158.502C527.143 168.05 519.402 175.791 509.853 175.791C500.304 175.791 492.562 168.05 492.562 158.502C492.562 148.953 500.304 141.213 509.853 141.213C519.402 141.213 527.143 148.953 527.143 158.502ZM510.655 150.895H512.384H512.499V168.876H515.957V148.129H510.655C505.353 148.129 502.586 150.895 502.586 154.929C502.586 158.157 504.085 160.001 506.851 161.96L502.125 168.991H506.159L511.116 161.269L509.387 160.001C507.197 158.502 506.159 157.234 506.159 154.699C506.159 152.394 507.658 150.895 510.655 150.895Z" fill="#C8CACE"/><path fill-rule="evenodd" clip-rule="evenodd" d="M562.68 165.507C559.998 171.572 553.934 175.791 546.862 175.791C540.879 175.791 535.572 172.771 532.464 168.168L538.448 160.231L537.295 168.414L543.635 170.604L551.358 158.271C551.012 160.576 550.436 165.878 555.508 167.492C558.031 168.26 560.45 167.346 562.68 165.507ZM563.824 155.124C561.348 158.853 558.964 161.486 557.698 161.153C555.508 160.576 557.467 153.546 558.735 149.05V148.935L551.704 146.515L543.289 160.231L544.442 152.739L538.333 150.664L529.849 161.782C529.654 160.72 529.558 159.624 529.572 158.502C529.572 148.935 537.295 141.213 546.862 141.213C555.273 141.213 562.258 147.181 563.824 155.124Z" fill="#C8CACE"/></g><path d="M821.162 158.636V158.605C823.51 158.105 824.738 156.768 824.738 154.697C824.738 152.309 822.806 150.799 819.765 150.799C816.901 150.799 814.88 152.309 814.88 154.452C814.88 155.728 815.593 156.483 816.782 156.483C817.357 156.483 817.833 156.289 818.031 155.983V155.952C817.595 155.748 817.208 154.87 817.208 154.074C817.208 152.595 818.269 151.544 819.824 151.544C821.33 151.544 822.331 152.809 822.351 154.625C822.37 157.075 821.29 158.289 819.101 158.289H817.763C817.753 158.442 817.753 158.901 817.763 159.044H818.922C821.697 159.044 822.995 160.319 822.995 163.085C822.985 165.575 821.905 166.871 819.953 166.871C817.922 166.871 816.842 166.003 816.842 164.248C816.842 163.299 817.397 162.228 817.882 162.197V162.166C817.535 161.809 817.119 161.646 816.555 161.646C815.276 161.646 814.414 162.564 814.414 163.922C814.414 166.258 816.485 167.636 819.993 167.636C823.252 167.636 825.491 165.656 825.491 162.789C825.481 160.605 823.797 158.962 821.162 158.636Z" fill="#C8CACE"/><path d="M804.774 166.483H806.033C807.747 166.483 808.301 165.697 809.292 162.564C809.599 162.615 809.887 162.697 810.263 162.83C809.976 164.33 809.748 165.789 809.589 167.228H803.417L801.297 167.207C800.674 167.201 800.004 167.212 799.315 167.223C798.952 167.229 798.584 167.235 798.215 167.238C798.196 167.003 798.196 166.769 798.205 166.544C799.91 166.483 800.157 166.238 800.157 165.33L800.167 153.074C800.167 152.34 799.919 152.105 798.205 151.921C798.196 151.691 798.205 151.471 798.215 151.242L798.215 151.227C798.708 151.227 799.264 151.23 799.816 151.233C800.363 151.235 800.908 151.238 801.386 151.238L806.568 151.217C807.975 151.207 808.767 151.197 809.55 151.187C809.58 152.615 809.659 154.125 809.788 155.636C809.411 155.717 809.114 155.768 808.698 155.799C808.212 152.401 807.4 151.962 805.587 151.962H804.418C802.922 151.962 802.545 152.187 802.545 153.034V158.728C802.931 158.83 803.466 158.87 804.239 158.87C805.706 158.87 806.736 158.483 807.489 157.636C807.638 157.738 807.776 158.217 807.776 158.585C807.776 159.789 806.885 160.513 805.399 160.513C804.467 160.513 803.536 160.166 802.555 159.462V165.289C802.555 166.238 802.991 166.483 804.774 166.483Z" fill="#C8CACE"/><path fill-rule="evenodd" clip-rule="evenodd" d="M786.217 158.84C787.238 158.217 788.367 157.921 789.665 157.921C792.558 157.921 794.252 159.605 794.232 162.473C794.232 165.646 792.172 167.248 788.1 167.258C787.188 167.258 786.086 167.253 784.984 167.248C783.881 167.243 782.779 167.238 781.868 167.238C781.858 167.003 781.858 166.779 781.868 166.544C783.463 166.483 783.79 166.177 783.79 165.32L783.8 153.074C783.8 152.309 783.453 152.013 781.848 151.911C781.838 151.687 781.848 151.452 781.858 151.217C782.829 151.227 784.295 151.238 785.226 151.238C786.029 151.232 786.834 151.23 787.639 151.227C788.444 151.225 789.249 151.222 790.051 151.217C790.371 151.217 790.705 151.22 791.04 151.223C791.827 151.229 792.619 151.236 793.252 151.207C793.281 152.625 793.37 154.136 793.489 155.656C793.123 155.727 792.746 155.778 792.4 155.809C791.914 152.431 791.092 151.962 789.17 151.962H788.109C786.613 151.962 786.207 152.217 786.207 153.054L786.217 158.84ZM786.227 165.33C786.227 166.228 786.673 166.503 788.258 166.503C790.606 166.503 791.686 165.228 791.676 162.503C791.676 160.319 790.507 159.126 788.357 159.126C787.644 159.126 786.911 159.289 786.217 159.595L786.227 165.33Z" fill="#C8CACE"/><path d="M842.315 153.095L842.325 165.269C842.325 166.207 842.691 166.473 844.316 166.554C844.326 166.789 844.326 167.014 844.316 167.248C843.747 167.243 843.21 167.229 842.708 167.215C842.178 167.2 841.687 167.187 841.235 167.187C840.726 167.187 840.104 167.203 839.48 167.218C838.975 167.231 838.467 167.244 838.015 167.248C838.005 167.014 838.005 166.789 838.015 166.554C839.551 166.483 839.937 166.228 839.937 165.35L839.947 153.217C839.947 152.187 839.699 151.993 838.213 151.993H836.43C835.27 151.993 835.27 152.625 835.33 153.932C835.736 163.146 834.408 167.473 831.169 167.473C829.613 167.473 828.513 166.473 828.513 165.054C828.513 163.432 829.772 162.391 831.337 162.595C831.347 162.615 831.347 162.646 831.337 162.666C830.733 162.983 830.406 163.493 830.406 164.207C830.406 164.942 830.931 165.452 831.664 165.452C833.854 165.452 834.785 161.564 834.468 153.942C834.393 152.056 833.482 152.002 832.199 151.927C832.115 151.922 832.029 151.917 831.941 151.911C831.931 151.676 831.931 151.452 831.941 151.217C832.469 151.217 832.967 151.22 833.449 151.223C833.899 151.225 834.334 151.227 834.765 151.227C835.107 151.227 835.454 151.225 835.8 151.222C836.147 151.22 836.494 151.217 836.836 151.217H838.401C838.877 151.217 839.352 151.22 839.828 151.222C840.304 151.225 840.779 151.227 841.255 151.227C841.765 151.227 842.265 151.225 842.766 151.222C843.266 151.22 843.766 151.217 844.277 151.217C844.286 151.452 844.286 151.687 844.277 151.911C842.642 152.064 842.315 152.227 842.315 153.095Z" fill="#C8CACE"/><path d="M863.884 151.227C862.448 151.227 861.427 151.921 859.862 154.044L853.085 163.228V153.197C853.085 152.309 853.491 152.044 855.146 151.911C855.156 151.687 855.156 151.452 855.146 151.227C854.889 151.233 854.605 151.24 854.308 151.247C853.496 151.267 852.594 151.289 851.926 151.289C851.426 151.289 850.813 151.273 850.199 151.257C849.706 151.245 849.212 151.232 848.775 151.227C848.765 151.452 848.765 151.687 848.775 151.911C850.43 151.982 850.756 152.278 850.756 153.146L850.766 164.391C850.766 165.84 850.122 166.483 848.686 166.483C848.676 166.728 848.676 166.983 848.686 167.228H849.201C850.697 167.228 851.618 166.605 853.243 164.411L860.03 155.248L860.02 165.33C860.02 166.187 859.723 166.473 858.088 166.534C858.078 166.769 858.078 166.993 858.088 167.228C858.57 167.223 859.125 167.21 859.664 167.196C860.288 167.181 860.892 167.167 861.338 167.167C861.778 167.167 862.303 167.181 862.854 167.196C863.346 167.209 863.859 167.223 864.35 167.228C864.36 166.993 864.36 166.769 864.35 166.534C862.715 166.452 862.358 166.207 862.358 165.289L862.349 154.095C862.349 152.646 862.993 151.982 864.419 151.972C864.429 151.727 864.429 151.472 864.419 151.217C864.191 151.227 864.092 151.227 863.884 151.227Z" fill="#C8CACE"/><path d="M886.097 153.105L886.206 165.289C886.216 166.289 886.87 166.473 888.247 166.554C888.257 166.789 888.257 167.014 888.247 167.248C887.791 167.244 887.308 167.231 886.824 167.219C886.213 167.203 885.601 167.187 885.037 167.187C884.494 167.187 883.853 167.203 883.223 167.219C882.738 167.232 882.259 167.244 881.837 167.248C881.827 167.014 881.827 166.789 881.837 166.554C883.254 166.483 883.888 166.33 883.878 165.34L883.759 152.87H883.68L877.646 167.422H877.368L871.919 153.554H871.85L871.265 164.993C871.206 166.126 871.731 166.493 873.405 166.565C873.415 166.799 873.415 167.034 873.405 167.258C872.967 167.249 872.573 167.234 872.207 167.22C871.747 167.203 871.332 167.187 870.928 167.187C870.649 167.187 870.277 167.198 869.849 167.211C869.366 167.226 868.811 167.243 868.233 167.248C868.224 167.014 868.224 166.779 868.233 166.554C869.848 166.493 870.324 166.167 870.383 165.034L870.988 154.023C871.077 152.37 870.582 151.931 868.739 152.003C868.739 151.758 868.749 151.462 868.788 151.217C872.207 150.982 873.99 152.187 875.189 155.37L878.31 163.687L883.422 151.248C883.858 151.258 884.918 151.258 885.641 151.258C886.226 151.258 886.645 151.251 887.109 151.243C887.423 151.237 887.758 151.231 888.178 151.227C888.188 151.462 888.188 151.687 888.178 151.921C886.642 151.962 886.087 152.268 886.097 153.105Z" fill="#C8CACE"/><path d="M907.775 151.227C906.339 151.227 905.318 151.921 903.753 154.044L896.976 163.228V153.197C896.976 152.309 897.382 152.044 899.037 151.911C899.047 151.687 899.047 151.452 899.037 151.227C898.78 151.233 898.496 151.24 898.199 151.247C897.387 151.267 896.485 151.289 895.817 151.289C895.317 151.289 894.704 151.273 894.09 151.257C893.597 151.245 893.103 151.232 892.666 151.227C892.656 151.452 892.656 151.687 892.666 151.911C894.321 151.982 894.648 152.278 894.648 153.146L894.658 164.391C894.658 165.84 894.013 166.483 892.577 166.483C892.567 166.728 892.567 166.983 892.577 167.228H893.092C894.588 167.228 895.51 166.605 897.134 164.411L903.921 155.248L903.911 165.33C903.911 166.187 903.614 166.473 901.979 166.534C901.969 166.769 901.969 166.993 901.979 167.228C902.462 167.223 903.016 167.21 903.555 167.196C904.179 167.181 904.783 167.167 905.229 167.167C905.669 167.167 906.194 167.181 906.745 167.196C907.237 167.209 907.75 167.223 908.241 167.228C908.251 166.993 908.251 166.769 908.241 166.534C906.606 166.452 906.25 166.207 906.25 165.289L906.24 154.095C906.24 152.646 906.884 151.982 908.31 151.972C908.32 151.727 908.32 151.472 908.31 151.217C908.083 151.227 907.993 151.227 907.775 151.227Z" fill="#C8CACE"/><path d="M914.499 151.215C915.844 151.226 917.203 151.238 918.555 151.238C918.9 151.238 919.244 151.238 919.586 151.238C921.634 151.239 923.643 151.24 925.689 151.197C925.676 151.786 925.623 152.638 925.567 153.529C925.499 154.63 925.427 155.789 925.421 156.585C925.243 156.636 924.807 156.646 924.579 156.605C924.558 156.462 924.538 156.317 924.518 156.17C924.249 154.214 923.948 152.023 921.468 152.023H919.813V165.136C919.813 166.187 920.368 166.432 922.449 166.544C922.459 166.779 922.459 167.003 922.449 167.238C921.689 167.229 921.024 167.215 920.441 167.203C919.771 167.189 919.21 167.177 918.743 167.177C918.279 167.177 917.716 167.189 917.09 167.203C916.446 167.217 915.736 167.233 914.998 167.238C914.988 167.003 914.988 166.769 914.998 166.534C916.94 166.473 917.485 166.146 917.485 165.187V152.034H916.267C914.186 152.034 912.997 153.625 912.928 156.595C912.749 156.646 912.214 156.636 912.036 156.574C912.056 155.391 912.026 152.993 911.907 151.197C912.761 151.201 913.627 151.208 914.499 151.215Z" fill="#C8CACE"/><path fill-rule="evenodd" clip-rule="evenodd" d="M759.222 134.801C759.214 134.801 758.666 135.012 758 135.306C757.4 135.57 757.217 135.871 757.231 136.55V136.565C757.231 136.738 757.224 136.783 757.063 136.904L756.661 137.213L756.419 136.693C756.368 136.58 756.339 136.512 756.339 136.489C756.339 136.476 756.36 136.434 756.38 136.395C756.393 136.37 756.406 136.346 756.412 136.331V136.324L756.565 136.007C756.8 135.532 756.8 135.261 756.58 134.801C756.295 134.206 755.98 133.663 755.965 133.64L755.819 133.392L755.585 133.55L755.582 133.552C755.535 133.584 755.038 133.923 754.604 134.326C754.231 134.665 754.136 134.892 754.143 135.366V135.698C754.143 135.849 754.129 135.902 753.997 136.03L753.448 136.512L753.082 135.992C752.975 135.845 752.979 135.82 753.007 135.671L753.009 135.66L753.111 135.17C753.221 134.658 753.133 134.341 752.797 133.972C752.544 133.693 752.269 133.403 752.095 133.219C751.987 133.106 751.919 133.033 751.919 133.03L751.728 132.834L751.414 133.158C751.406 133.166 751.062 133.52 750.653 133.972C750.316 134.349 750.235 134.658 750.338 135.17L750.44 135.66C750.477 135.819 750.477 135.841 750.367 135.992L749.994 136.482L749.46 136.03C749.321 135.902 749.306 135.856 749.313 135.698V135.366C749.321 134.892 749.226 134.665 748.852 134.326C748.482 133.988 748.074 133.695 747.927 133.591C747.894 133.567 747.874 133.553 747.872 133.55L747.623 133.392L747.477 133.64C747.462 133.663 747.147 134.206 746.862 134.801C746.635 135.268 746.642 135.54 746.869 136.007L747.023 136.324V136.331C747.045 136.361 747.096 136.467 747.096 136.489C747.096 136.512 747.067 136.58 747.016 136.693L746.774 137.213L746.372 136.904C746.211 136.776 746.196 136.731 746.203 136.557V136.542C746.218 135.871 746.035 135.57 745.435 135.299C744.776 135.005 744.22 134.794 744.213 134.794L743.576 134.552L743.876 135.178C743.883 135.193 744.498 136.474 745.274 138.155C745.845 139.384 745.984 140.1 745.984 140.107L746.035 140.378L746.298 140.326C748.216 139.964 750.031 139.776 751.706 139.776C753.375 139.776 755.197 139.956 757.114 140.326L757.378 140.378L757.429 140.107C757.429 140.1 757.568 139.384 758.139 138.155C758.914 136.482 759.529 135.193 759.536 135.178L759.836 134.552L759.222 134.801ZM768.179 145.202C766.181 144.237 758.739 140.906 751.728 140.906C744.718 140.906 737.275 144.237 735.278 145.202C734.963 145.353 734.773 145.685 734.795 146.039C734.868 147.41 735.036 151.382 735.036 159.598C735.036 170.76 737.093 178.998 751.443 184.115C751.626 184.183 751.831 184.183 752.014 184.123C766.284 179.254 768.42 170.481 768.42 159.59C768.42 151.375 768.589 147.403 768.662 146.031C768.677 145.685 768.486 145.353 768.179 145.202ZM750.144 148.726C750.149 148.522 750.317 148.457 750.54 148.457C750.968 148.457 751.591 148.709 751.591 148.709C751.592 148.227 753.136 148.648 753.348 148.862C753.368 148.883 753.387 148.903 753.405 148.921C753.57 149.093 753.638 149.164 754.053 149.164C754.511 149.164 754.825 149.472 754.825 149.676C754.825 149.879 755.308 149.885 755.566 149.885C755.824 149.885 757.224 150.184 757.293 150.255C757.356 150.303 757.408 150.365 757.445 150.436C757.481 150.507 757.502 150.585 757.504 150.665C757.504 150.895 757.182 151.101 757.182 151.101C757.182 151.101 757.355 151.194 757.355 151.715C757.355 152.235 756.66 152.166 756.66 152.166C756.659 152.469 756.652 152.637 756.543 152.637C756.503 152.637 756.458 152.556 756.403 152.454C756.306 152.277 756.174 152.036 755.965 152.036C755.637 152.036 755.436 152.185 755.23 152.395C755.024 152.604 754.988 153.012 755.214 153.012C755.44 153.012 755.725 152.788 755.814 152.698C755.903 152.608 755.935 152.618 755.935 152.618C756.116 152.618 756.512 153.072 756.459 153.617C756.389 154.369 755.568 155.316 755.568 154.646C755.568 153.976 754.768 153.988 754.768 153.988C754.768 153.988 753.9 153.911 753.9 154.811C753.9 155.205 754.261 155.319 754.732 155.468C755.306 155.649 756.044 155.882 756.494 156.733C757.209 156.558 758.887 156.074 758.887 155.405C758.888 154.948 758.686 154.728 758.498 154.524C758.337 154.348 758.186 154.185 758.186 153.892C758.186 153.26 758.622 153.22 758.622 153.22C758.679 153.123 758.759 153.043 758.856 152.987C759.038 152.865 759.245 152.896 759.311 152.966C759.345 153.002 759.307 153.035 759.26 153.075C759.214 153.114 759.161 153.16 759.161 153.222C759.161 153.241 759.161 153.257 759.16 153.271C759.159 153.35 759.158 153.367 759.228 153.438C759.286 153.505 759.33 153.584 759.357 153.669C759.453 153.705 759.535 153.771 759.59 153.857C759.646 153.944 759.673 154.046 759.666 154.149C759.666 154.537 759.764 154.586 759.809 154.586C759.855 154.586 760.238 154.422 760.238 153.705C760.237 153.682 760.242 153.659 760.25 153.639C760.259 153.618 760.272 153.599 760.288 153.583C760.288 153.583 760.209 153.501 760.209 153.236C760.209 152.972 760.444 152.673 760.71 152.673C760.851 152.667 760.992 152.697 761.118 152.76C761.118 152.76 761.37 152.601 761.582 152.708C761.795 152.815 761.87 152.914 761.87 153.045C761.87 153.102 761.788 153.104 761.696 153.107C761.576 153.11 761.439 153.114 761.439 153.237C761.439 153.456 761.369 153.501 761.369 153.501C761.369 153.501 761.62 153.856 761.196 154.286C761.196 154.286 761.03 154.437 761.137 154.545C761.187 154.596 761.301 154.572 761.445 154.541L761.452 154.54C761.6 154.508 761.749 154.477 761.817 154.545C761.864 154.468 761.929 154.403 762.007 154.357C762.084 154.311 762.171 154.284 762.261 154.279C762.436 154.28 762.605 154.342 762.74 154.455C762.74 154.455 762.907 154.458 762.907 154.203C762.907 153.949 763.118 154.16 763.118 154.573C763.118 154.987 762.906 154.964 762.906 154.964C762.906 154.964 762.968 155.524 762.306 155.524C762.306 155.524 762.198 155.763 761.77 155.763C761.632 155.763 761.5 155.743 761.385 155.726C761.145 155.689 760.978 155.664 760.978 155.855C760.978 155.98 761.111 156.017 761.279 156.062C761.492 156.12 761.76 156.194 761.884 156.482C761.884 156.482 762.144 156.606 762.144 156.759C762.144 156.759 762.386 156.981 762.544 156.821C762.703 156.661 762.689 156.998 762.413 157.278C762.137 157.559 762.019 157.485 762.019 157.485C762.019 157.485 761.869 157.802 761.333 157.637C761.052 157.551 760.865 157.347 760.705 157.171C760.56 157.011 760.436 156.876 760.283 156.876C759.963 156.876 758.93 157.626 758.93 157.626C758.93 157.626 758.571 157.763 758.571 158.518C758.571 159.273 758.041 159.458 758.041 159.458L756.795 159.846C757.045 160.09 758.327 161.305 758.619 161.305C758.771 161.305 758.959 161.436 759.158 161.575C759.382 161.732 759.621 161.899 759.841 161.899C759.974 161.903 760.106 161.89 760.236 161.863C760.354 161.837 760.475 161.825 760.596 161.827C760.596 161.827 761.004 161.889 761.268 161.621C761.532 161.353 761.615 161.276 762.019 161.276C762.019 161.276 762.37 161.105 762.791 161.533C762.791 161.533 762.961 161.506 763.351 161.903C763.568 162.123 763.435 162.101 763.242 162.069C763.235 162.068 763.228 162.067 763.221 162.066C763.069 162.042 762.888 162.018 762.807 162.1C762.807 162.1 762.667 162.441 762.321 162.441C761.975 162.441 761.975 162.363 761.975 162.363C761.975 162.363 761.959 162.526 761.861 162.526C762.05 162.62 762.26 162.666 762.471 162.659C762.525 162.657 762.578 162.675 762.62 162.709C762.62 162.709 763.026 162.527 763.327 162.834C763.382 162.883 763.426 162.942 763.456 163.009C763.487 163.076 763.504 163.149 763.505 163.222C763.505 163.222 763.666 163.279 763.666 163.584C763.669 163.655 763.65 163.725 763.61 163.784C763.571 163.842 763.513 163.886 763.447 163.909C763.44 163.911 763.433 163.912 763.426 163.911C763.419 163.91 763.413 163.907 763.408 163.902C763.404 163.899 763.401 163.896 763.399 163.892C763.397 163.889 763.396 163.887 763.396 163.885C763.393 163.878 763.393 163.871 763.394 163.864C763.406 163.787 763.403 163.679 763.272 163.679C763.213 163.679 763.151 163.714 763.083 163.752C762.925 163.842 762.734 163.95 762.468 163.679C762.468 163.679 762.187 163.791 762.088 163.74C762.082 163.737 762.077 163.733 762.072 163.728C762.04 163.696 762.046 163.707 762.063 163.744C762.087 163.797 762.135 163.9 762.135 164C762.135 164 762.287 163.982 762.518 164.215C762.585 164.283 762.634 164.367 762.662 164.459C762.691 164.551 762.697 164.648 762.68 164.743C762.68 164.743 762.812 164.87 762.918 164.827C762.923 164.826 762.928 164.826 762.933 164.827C762.937 164.828 762.942 164.83 762.946 164.833C762.949 164.836 762.952 164.84 762.954 164.845C762.956 164.85 762.956 164.855 762.955 164.86C762.935 164.983 762.857 165.245 762.575 165.245C762.208 165.245 762.191 165.204 762.191 165.204C762.096 165.238 761.995 165.252 761.894 165.245C761.675 165.245 761.392 164.957 761.392 164.782C761.392 164.782 760.968 164.658 760.969 164.395C760.97 164.133 760.843 163.875 760.48 163.875C760.117 163.875 760.34 164.279 760.34 164.279C760.34 164.279 760.774 164.713 760.283 165.209C759.992 165.508 760.065 165.614 760.174 165.65C760.181 165.652 760.187 165.656 760.192 165.662C760.196 165.669 760.199 165.676 760.199 165.684C760.199 165.691 760.196 165.699 760.192 165.705C760.187 165.711 760.181 165.715 760.174 165.717C760.087 165.741 759.995 165.741 759.907 165.72C759.819 165.699 759.738 165.655 759.671 165.594C759.415 165.334 759.528 165.171 759.528 165.171C759.528 165.171 759.341 165.036 759.341 164.607C759.341 164.607 758.927 164.549 758.927 164.013V163.634C758.919 163.539 758.878 163.449 758.811 163.382C758.697 163.268 757.973 162.82 757.317 162.82C757.115 162.815 756.912 162.834 756.715 162.877C756.499 162.922 756.278 162.942 756.058 162.935C755.643 162.935 755.212 162.673 754.913 162.444C754.071 163.002 753.129 163.387 752.141 163.576C752.074 163.64 752.022 163.72 751.99 163.808C753.167 163.97 755.728 164.363 756.183 164.825C756.531 165.174 756.807 165.589 756.995 166.046C757.182 166.504 757.279 166.995 757.277 167.491C757.277 167.491 757.232 168.517 756.703 168.534C756.453 168.543 756.469 168.742 756.492 169.036C756.5 169.134 756.509 169.242 756.509 169.358C756.509 169.819 756.533 170.511 757.171 170.511C757.583 170.511 757.763 170.718 757.89 170.864C757.96 170.944 758.014 171.006 758.082 171.006C758.189 171.003 758.295 171.013 758.399 171.035C758.589 171.084 758.783 171.111 758.979 171.116C759.117 171.116 759.242 171.017 759.367 170.918C759.453 170.85 759.539 170.781 759.629 170.746C759.783 170.676 759.958 170.665 760.119 170.717C760.119 170.717 760.152 170.377 760.73 170.377C761.308 170.377 761.335 170.754 761.335 170.754C761.335 170.754 761.558 170.672 761.747 171.017C761.825 171.159 761.758 171.137 761.652 171.101C761.643 171.098 761.633 171.095 761.623 171.091C761.47 171.041 761.263 170.991 761.263 171.312C761.263 171.893 760.457 171.699 760.457 171.699C760.449 171.784 760.408 171.862 760.344 171.916C760.279 171.971 760.196 171.997 760.113 171.991C760.113 171.991 760.097 171.992 760.097 172.009C760.097 172.026 760.126 172.026 760.126 172.026C760.126 172.026 760.636 171.965 760.91 171.965C760.965 171.965 761.026 171.959 761.092 171.953C761.104 171.951 761.117 171.95 761.13 171.949C761.387 171.922 761.701 171.896 761.934 172.134C762.019 172.22 762.1 172.272 762.174 172.32C762.369 172.444 762.511 172.535 762.511 173.12C762.506 173.13 762.499 173.138 762.491 173.144C762.482 173.151 762.472 173.154 762.461 173.155C762.453 173.155 762.427 173.138 762.389 173.112C762.288 173.043 762.102 172.917 761.936 172.917C761.936 172.917 761.834 173.451 761.352 173.451C760.87 173.451 760.831 173.266 760.831 173.266C760.831 173.266 760.598 173.511 760.172 173.339C759.746 173.168 759.526 173.276 759.526 173.276C759.526 173.276 759.507 173.276 759.526 173.298C759.528 173.3 759.54 173.308 759.56 173.32C759.73 173.421 760.457 173.855 760.457 174.523C760.457 174.523 760.714 174.683 760.714 175.116C760.714 175.308 760.665 175.249 760.561 175.124C760.432 174.968 760.218 174.71 759.909 174.71C759.909 174.71 758.804 175.15 758.804 174.426C758.804 174.426 758.518 174.52 758.074 174.068C757.852 173.841 757.743 173.53 757.654 173.277C757.566 173.025 757.497 172.83 757.357 172.83C757.245 172.83 757.26 172.882 757.288 172.978C757.329 173.122 757.399 173.364 757.098 173.67C756.597 174.177 756.953 174.554 756.953 174.554C756.953 174.554 756.94 174.679 756.845 174.583C756.827 174.564 756.791 174.542 756.747 174.514C756.566 174.4 756.231 174.19 756.231 173.699C756.231 173.699 755.779 173.175 756.152 172.796C756.152 172.796 755.756 172.39 755.756 171.578C755.756 171.578 754.41 170.535 754.41 168.236C754.41 168.236 754.308 167.944 754.652 167.597C754.652 167.597 755.37 166.95 752.951 166.95C752.951 166.95 752.222 167.034 751.588 167.034C751.526 167.034 751.451 167.037 751.367 167.042C751 167.061 750.463 167.079 750.132 166.741C750.113 166.721 750.098 166.698 750.089 166.672C750.008 166.683 749.928 166.692 749.848 166.699C749.22 167.16 748.368 167.448 747.865 167.619C747.73 167.664 747.62 167.702 747.546 167.731C747.372 167.801 747.173 167.835 746.96 167.871C746.5 167.948 745.973 168.036 745.488 168.528C745.368 168.65 745.396 168.782 745.429 168.938C745.476 169.163 745.534 169.437 745.172 169.805C745.094 169.892 744.996 169.957 744.886 169.996C744.777 170.034 744.66 170.043 744.546 170.022C744.546 170.022 744.232 170.567 744.618 170.958C745.071 171.419 745.751 171.092 746.069 170.939C746.126 170.912 746.171 170.89 746.201 170.88C746.404 170.807 746.677 170.909 746.677 170.909C747.205 170.373 747.661 170.892 747.661 170.892C748.34 170.892 748.397 171.713 748.225 171.539C748.053 171.365 747.8 171.55 747.8 171.55C747.8 171.55 747.632 172.013 747.309 172.013C746.986 172.013 746.929 171.943 746.929 171.943C746.929 171.943 746.925 172.111 746.694 172.111C746.464 172.111 746.185 172.337 746.519 172.337C746.854 172.337 746.933 172.579 746.933 172.579C747.276 172.231 747.891 172.68 747.891 172.68C748.459 172.68 748.282 173.537 748.23 173.537C748.178 173.537 748.183 173.481 748.183 173.481C748.183 173.194 747.885 173.454 747.885 173.454C747.833 173.559 747.753 173.647 747.656 173.71C747.558 173.774 747.446 173.809 747.33 173.813C746.943 173.813 746.787 173.616 746.787 173.616C746.671 173.686 746.536 173.718 746.401 173.709C746.326 173.711 746.251 173.697 746.181 173.668C746.112 173.639 746.049 173.596 745.997 173.54C745.693 173.48 745.906 173.709 745.906 173.709C746.806 174.237 746.35 174.64 746.35 174.64C746.786 175.083 746.133 175.24 746.032 175.24C745.93 175.24 745.971 175.159 745.971 175.159C745.971 175.159 746.279 174.904 745.618 174.904C744.957 174.904 744.848 174.441 744.848 174.441C744.54 174.441 743.816 174.047 743.816 173.424C743.816 172.8 743.571 172.632 743.571 172.632C743.579 172.77 743.539 172.906 743.458 173.016C743.376 173.127 743.259 173.205 743.126 173.236C743.126 173.236 742.986 173.379 743.209 173.606C743.323 173.722 743.153 173.739 743.153 173.739C742.81 173.739 742.726 173.57 742.62 173.358C742.561 173.24 742.496 173.108 742.374 172.984C742.035 172.64 742.442 172.14 742.442 172.14C741.801 171.489 742.345 170.741 743.027 170.049C743.278 169.793 743.148 169.528 742.985 169.194C742.807 168.832 742.591 168.389 742.78 167.791C742.948 167.271 743.571 167.042 744.151 166.829C744.532 166.688 744.895 166.555 745.097 166.35C745.355 166.089 745.359 165.976 745.367 165.752C745.375 165.533 745.387 165.209 745.644 164.539C745.686 164.433 745.735 164.33 745.79 164.232C744.822 164.029 743.937 163.537 743.247 162.819C741.573 161.118 742.351 158.309 742.351 158.309C742.303 158.359 742.071 158.359 742.071 158.359C741.487 158.359 740.784 157.774 740.784 157.013C740.784 156.27 741.23 155.541 742.098 155.542C742.966 155.543 743.066 156.008 743.066 156.257C743.071 156.413 743.017 156.566 742.915 156.683C742.881 156.716 742.881 156.665 742.881 156.665C742.883 156.598 742.862 156.533 742.82 156.482C742.777 156.43 742.718 156.397 742.653 156.387C742.653 156.387 741.941 156.211 741.941 156.923C741.941 157.677 743.764 157.323 743.764 156.301C743.764 155.28 743.299 155.04 743.225 155.04C743.152 155.04 743.197 154.942 743.197 154.942C743.197 154.942 743.273 154.728 743.744 154.728C743.871 154.721 743.997 154.754 744.106 154.821C744.214 154.889 744.299 154.989 744.35 155.107C744.378 155.022 744.397 154.935 744.408 154.846V154.845C744.408 154.762 744.408 153.967 743.688 153.967C743.06 153.967 742.923 154.255 742.877 154.353C742.869 154.369 742.864 154.379 742.86 154.384C742.858 154.385 742.857 154.386 742.856 154.388C742.824 154.419 742.79 154.453 742.79 154.372C742.79 154.366 742.789 154.358 742.789 154.35C742.784 154.238 742.771 153.908 743.302 153.371C743.873 152.794 744.852 153.489 744.852 153.489C745.124 153.214 745.018 152.408 744.432 152.408C743.982 152.408 743.865 152.537 743.811 152.597C743.795 152.615 743.784 152.627 743.771 152.627C743.718 152.627 743.718 152.493 743.718 152.493C743.718 151.467 744.698 151.685 744.698 151.685C744.698 151.685 744.736 151.182 744.098 151.182C743.527 151.182 743.54 151.754 743.549 152.177C743.55 152.228 743.551 152.276 743.551 152.321C743.551 152.742 743.185 153.318 742.611 153.318C742.291 153.318 741.879 153.056 741.514 152.824C741.223 152.639 740.961 152.473 740.799 152.473C740.6 152.48 740.411 152.567 740.275 152.714C740.138 152.862 740.064 153.058 740.07 153.26C740.07 153.598 740.319 153.809 740.462 153.93C740.52 153.979 740.56 154.013 740.56 154.035C740.56 154.112 740.439 154.112 740.439 154.112C740.439 154.112 739.122 153.999 739.123 152.724C739.124 151.449 740.168 151.233 740.635 151.233C741.102 151.233 741.345 151.023 741.345 151.023C741.907 150.454 741.777 150.033 741.688 149.744C741.584 149.406 741.535 149.249 742.708 149.249C744.884 149.249 746.501 151.053 746.501 153.412C746.5 155.489 744.877 156.576 744.49 156.806C744.672 156.705 744.881 156.667 745.087 156.698C745.292 156.73 745.481 156.828 745.626 156.979C746.188 157.55 745.904 158.182 745.846 158.182C745.787 158.182 745.774 158.107 745.774 158.107C745.774 157.983 745.609 157.798 745.609 157.798C745.087 157.268 744.62 157.765 744.62 157.765C744.62 157.765 745.125 157.925 745.125 158.474C745.132 158.624 745.1 158.773 745.033 158.907C744.967 159.042 744.867 159.156 744.744 159.24C744.744 159.026 744.383 158.778 744.086 158.778C743.789 158.778 743.404 159.117 743.389 159.492C743.379 159.757 743.376 159.813 743.375 159.823M750.144 148.726C750.09 148.701 748.791 148.102 748.791 148.784C748.93 149.056 749.085 149.318 749.255 149.571C748.944 149.499 748.626 149.463 748.306 149.464C747.225 149.464 746.944 150.356 746.923 150.457C746.902 150.559 746.966 150.55 747.045 150.513C747.094 150.492 747.818 150.235 748.014 150.605C748.037 150.679 748.048 150.755 748.046 150.832C748.046 151.135 747.922 151.298 747.787 151.473C747.632 151.676 747.463 151.896 747.463 152.371C747.463 153.256 747.598 153.33 747.598 153.33C747.617 153.349 747.642 153.36 747.668 153.361C747.681 153.361 747.693 153.314 747.711 153.247C747.723 153.204 747.736 153.152 747.754 153.1C747.798 152.97 747.865 152.84 747.978 152.84C748.093 152.84 748.028 153.129 747.936 153.538C747.846 153.939 747.729 154.456 747.729 154.933C747.729 155.898 748.192 156.197 748.192 156.197C748.192 156.197 747.886 157.237 748.48 157.237C748.48 157.237 748.512 159.66 749.962 159.66C749.962 159.66 750.173 160.407 749.131 161.464C748.554 162.05 748.258 162.248 747.992 162.426C747.779 162.569 747.585 162.699 747.28 163.007H747.271C747.167 163.045 747.065 163.091 746.967 163.143C746.839 163.181 746.706 163.203 746.572 163.209C746.169 163.236 745.765 163.178 745.385 163.04C745.005 162.901 744.657 162.685 744.362 162.405C743.349 161.48 743.482 160.522 744.196 160.522C744.91 160.522 744.863 161.189 744.863 161.189C744.863 161.189 744.846 161.691 744.343 161.691C744.343 161.691 744.273 161.676 744.273 161.728C744.273 161.78 744.897 162.231 745.399 161.723C745.9 161.214 745.827 159.49 744.299 159.49C744.299 159.49 743.722 159.473 743.375 159.823" fill="#C8CACE"/><g clip-path="url(#clip2_9932_5780)"><path fill-rule="evenodd" clip-rule="evenodd" d="M1166.31 158.431L1165.89 158.849C1162.82 162.337 1159.61 165.824 1156.41 169.172L1155.99 169.59H1147.2C1147.34 169.451 1147.48 169.311 1147.48 169.172C1150.69 165.684 1153.76 162.197 1156.96 158.71C1157.1 158.57 1157.1 158.431 1157.24 158.291C1157.1 158.152 1156.96 158.012 1156.96 157.873C1153.76 154.385 1150.69 150.898 1147.48 147.55C1147.34 147.411 1147.2 147.271 1147.2 147.132H1155.99C1156.13 147.271 1156.13 147.411 1156.27 147.55C1159.47 151.038 1162.54 154.525 1165.75 157.873L1166.31 158.431Z" fill="#C8CACE"/><path fill-rule="evenodd" clip-rule="evenodd" d="M1151.67 158.43C1150.13 158.988 1148.6 159.406 1147.06 159.964V164.707H1146.92C1146.09 163.452 1145.11 162.196 1144.27 160.941C1142.74 161.499 1141.34 161.917 1139.67 162.475C1140.65 161.08 1141.62 159.825 1142.46 158.569C1141.48 157.314 1140.65 156.058 1139.53 154.664C1141.2 155.222 1142.6 155.64 1144.13 156.198C1144.97 154.943 1145.95 153.687 1146.78 152.432H1146.92V157.035C1148.6 157.453 1150.13 158.011 1151.67 158.43ZM1133.39 162.615V167.357H1119.16V149.502H1133.39V154.245H1123.91V156.058H1132.42V160.383H1123.91V162.615H1133.39ZM1113.72 165.823C1112.75 166.799 1111.63 167.357 1110.24 167.636C1106.33 168.334 1102.84 167.776 1099.5 165.544C1099.36 165.405 1099.08 165.265 1098.94 165.126C1098.8 165.126 1098.8 164.986 1098.66 164.847L1101.59 161.499C1101.73 161.638 1101.87 161.778 1102.01 161.778C1103.82 163.033 1105.63 163.731 1107.87 163.591C1108.28 163.591 1108.7 163.452 1109.12 163.312C1109.54 163.173 1109.82 162.894 1109.82 162.336C1109.82 161.778 1109.54 161.499 1109.12 161.359C1108.28 161.08 1107.45 160.801 1106.47 160.522C1105.08 160.104 1103.68 159.685 1102.29 159.127C1100.75 158.43 1099.78 157.314 1099.5 155.501C1099.08 152.432 1100.61 149.921 1103.68 149.223C1107.31 148.247 1110.66 148.805 1113.86 151.037L1114 151.176L1114.14 151.316C1113.17 152.432 1112.33 153.548 1111.35 154.664L1109.68 153.827C1108.7 153.408 1107.59 153.129 1106.47 153.129C1106.19 153.129 1105.77 153.269 1105.49 153.408C1104.66 153.827 1104.66 154.803 1105.35 155.222C1105.91 155.501 1106.47 155.78 1107.17 155.919C1108.42 156.337 1109.68 156.616 1110.93 156.895C1111.35 157.035 1111.91 157.314 1112.33 157.453C1115.68 159.127 1116.37 163.312 1113.72 165.823ZM1092.66 160.104C1092.94 159.964 1093.08 159.825 1093.36 159.685C1095.87 157.732 1096.29 154.385 1094.47 151.874C1093.22 150.339 1091.55 149.502 1089.59 149.502H1080.53V167.357H1085.27V160.941H1087.22C1087.64 160.941 1087.92 161.08 1088.06 161.499C1088.89 163.312 1089.87 165.126 1090.71 166.939C1090.85 167.078 1090.85 167.218 1090.99 167.357H1096.43C1095.03 164.847 1093.92 162.475 1092.66 160.104ZM1089.31 156.058H1085.13V154.245H1089.31C1090.01 154.245 1090.43 154.664 1090.43 155.222C1090.43 155.64 1090.01 156.058 1089.31 156.058ZM1065.88 154.245V156.058H1074.39V160.383H1065.88V162.615H1075.36V167.357H1061V149.502H1075.36V154.245H1065.88ZM1057.65 149.502C1055.7 155.501 1053.74 161.359 1051.79 167.357H1043.98C1042.03 161.499 1040.07 155.501 1038.12 149.502H1043.56C1044.82 153.687 1046.21 158.011 1047.6 162.336H1048.02C1049.42 158.011 1050.67 153.827 1052.07 149.502C1052.07 149.502 1057.65 149.502 1057.65 149.502ZM1034.49 149.502V167.357H1029.05C1026.68 164.149 1024.31 160.801 1021.94 157.453H1021.8V167.218H1017.06V149.502H1021.94C1024.45 152.85 1026.96 156.058 1029.61 159.546V149.502H1034.49ZM1003.66 148.944C998.364 148.944 994.04 153.129 993.9 158.43C993.9 163.731 998.224 167.915 1003.53 167.915C1008.83 167.915 1013.29 163.731 1013.29 158.43C1013.29 153.129 1008.97 148.944 1003.66 148.944ZM1003.53 162.894C1001.01 162.894 999.061 160.801 999.061 158.29C999.061 155.78 1001.15 153.827 1003.66 153.827C1006.18 153.827 1008.13 155.919 1008.13 158.43C1008.13 160.941 1006.18 163.033 1003.53 162.894ZM987.763 160.801C989.157 161.778 990.552 162.754 992.087 163.731C990.831 165.405 989.297 166.66 987.344 167.218C983.717 168.334 980.369 167.915 977.44 165.544C971.86 161.08 973.255 152.432 979.951 149.642C984.275 147.828 989.157 149.084 991.947 152.711C991.808 152.85 991.947 152.99 991.947 153.129L987.763 156.058C986.647 154.664 985.252 153.687 983.299 153.827C982.043 153.966 980.927 154.524 980.09 155.501C978.556 157.314 978.696 160.104 980.509 161.778C982.322 163.312 985.391 163.731 987.763 160.801Z" fill="#C8CACE"/></g><g clip-path="url(#clip3_9932_5780)"><path d="M1236.43 145.432C1236.43 159.743 1238.26 167.268 1243.49 174.055C1247.76 170.762 1250.54 165.656 1250.54 159.877C1250.54 153.763 1247.35 148.119 1242.13 144.827V149.06C1245.25 151.815 1247.08 155.712 1247.08 159.877C1247.08 161.826 1246.74 163.64 1246 165.32C1241.86 161.087 1239.96 156.249 1239.96 146.91V143.617C1238.87 143.147 1237.72 142.744 1236.43 142.408V145.432V145.432ZM1227.74 177.145C1229.23 177.548 1230.86 177.75 1232.49 177.75C1234.12 177.75 1235.75 177.548 1237.24 177.145C1235.14 167.134 1234.26 160.684 1234.26 144.222V139.317C1233.64 139.25 1233.1 139.25 1232.49 139.25C1231.88 139.25 1231.27 139.25 1230.73 139.317V144.222C1230.73 160.684 1229.84 167.134 1227.74 177.145ZM1214.44 159.877C1214.44 165.656 1217.22 170.829 1221.5 174.055C1226.72 167.268 1228.55 159.676 1228.55 145.432V142.475C1227.26 142.744 1226.04 143.147 1225.03 143.685V146.977C1225.03 156.316 1223.12 161.087 1218.98 165.387C1218.31 163.707 1217.9 161.826 1217.9 159.945C1217.9 155.779 1219.66 151.882 1222.85 149.127V144.827C1217.56 148.119 1214.44 153.763 1214.44 159.877Z" fill="#C8CACE"/><path d="M1297.04 153.024C1294.46 153.024 1292.56 153.965 1291.67 155.578H1291.47V153.495H1286.86V175.264H1291.47V168.344H1291.67C1292.62 169.956 1294.52 170.897 1297.04 170.897C1301.79 170.897 1305.59 166.933 1305.59 161.961C1305.52 156.989 1301.79 153.024 1297.04 153.024ZM1296.09 166.597C1293.44 166.597 1291.4 164.514 1291.4 161.961C1291.4 159.34 1293.44 157.325 1296.09 157.325C1298.8 157.325 1300.84 159.34 1300.84 161.961C1300.77 164.581 1298.73 166.597 1296.09 166.597Z" fill="#C8CACE"/><path d="M1281.9 148.388L1276.67 159.273L1269.61 148.388H1263.98L1274.3 164.111L1274.09 164.514C1273.62 165.455 1273.07 165.858 1271.72 165.858H1268.46V170.427H1272.33C1275.45 170.427 1276.74 169.553 1278.1 166.866L1287.12 148.321H1281.9V148.388Z" fill="#C8CACE"/><path d="M1400.53 154.301C1397.95 154.301 1395.85 155.309 1394.63 157.123H1394.42C1394.76 153.763 1396.32 152.218 1400.12 151.747L1407.05 150.874V146.439L1399.31 147.582C1392.86 148.522 1390.28 151.479 1389.94 158.063C1389.54 165.589 1392.12 170.964 1399.51 170.964C1404.6 170.964 1408.54 167.201 1408.54 162.296C1408.54 157.526 1405.28 154.301 1400.53 154.301ZM1399.38 166.597C1396.87 166.597 1394.97 164.782 1394.97 162.296C1394.97 159.81 1396.8 157.929 1399.38 157.929C1401.89 157.929 1403.72 159.81 1403.72 162.296C1403.79 164.715 1401.89 166.597 1399.38 166.597Z" fill="#C8CACE"/><path d="M1321.6 155.51H1321.4C1320.45 153.898 1318.55 152.957 1316.04 152.957C1311.29 152.957 1307.48 156.921 1307.48 161.893C1307.48 166.865 1311.22 170.83 1316.04 170.83C1318.55 170.83 1320.45 169.889 1321.4 168.276H1321.6V170.359H1326.22V153.495H1321.6V155.51ZM1316.99 166.597C1314.34 166.597 1312.24 164.581 1312.24 161.961C1312.24 159.34 1314.27 157.324 1316.99 157.324C1319.63 157.324 1321.67 159.34 1321.67 161.961C1321.6 164.514 1319.56 166.597 1316.99 166.597Z" fill="#C8CACE"/><path d="M1359.07 157.324C1361.1 157.324 1362.6 158.467 1363.27 160.012L1367.28 158.265C1366.26 155.04 1363 152.957 1359 152.957C1353.57 152.957 1349.84 156.854 1349.84 161.893C1349.84 167 1353.57 170.83 1359 170.83C1363 170.83 1366.26 168.747 1367.28 165.522L1363.27 163.775C1362.66 165.32 1361.1 166.462 1359.07 166.462C1356.42 166.462 1354.59 164.581 1354.59 161.893C1354.59 159.273 1356.49 157.324 1359.07 157.324Z" fill="#C8CACE"/><path d="M1332.39 153.494L1331.58 163.976C1331.44 165.588 1330.9 166.26 1329.68 166.26H1328.52V170.56H1331.24C1334.29 170.56 1335.65 169.082 1335.92 165.723L1336.53 157.929H1342.23V170.426H1346.85V153.494H1332.39Z" fill="#C8CACE"/><path d="M1381.87 153.494L1374.47 164.379V153.494H1369.93V170.426H1374.74L1382.07 159.608V170.426H1386.69V153.494H1381.87Z" fill="#C8CACE"/></g><path d="M1640.99 148.992L1634.41 156.344V148.992H1629.77V167.565H1634.41V159.633L1641.57 167.565H1647.56L1639.05 157.698L1646.98 148.992H1640.99Z" fill="#C8CACE"/><path d="M1621.25 155.765H1614.67V148.993H1610.03V167.566H1614.67V160.214H1621.25V167.566H1626.08V148.993H1621.25V155.765Z" fill="#C8CACE"/><path d="M1483.31 159.052C1483.11 162.535 1482.73 163.309 1480.79 163.309V167.758H1481.57C1486.4 167.758 1487.56 165.243 1487.76 159.633L1487.95 153.248H1492.59V167.565H1497.43V148.992H1483.89L1483.31 159.052Z" fill="#C8CACE"/><path d="M1509.04 154.604H1505.56V148.8H1500.72V167.373H1509.04C1514.26 167.373 1516 164.084 1516 160.795C1516.2 156.925 1513.49 154.604 1509.04 154.604ZM1508.65 163.31H1505.56V158.667H1508.65C1510.39 158.667 1511.36 159.44 1511.36 160.988C1511.36 162.536 1510.39 163.31 1508.65 163.31Z" fill="#C8CACE"/><path d="M1531.67 148.413V141.642H1526.84V148.606C1521.42 148.993 1517.74 152.863 1517.74 158.28C1517.74 163.697 1521.42 167.566 1526.84 167.953V174.918H1531.67V167.953C1537.09 167.566 1540.76 163.697 1540.76 158.28C1540.76 152.669 1537.09 148.8 1531.67 148.413ZM1526.84 163.503C1524.13 163.116 1522.58 161.182 1522.58 158.28C1522.58 155.378 1524.32 153.443 1526.84 153.056V163.503ZM1531.67 163.503V152.863C1534.38 153.25 1535.93 155.184 1535.93 158.086C1535.93 160.988 1534.19 163.116 1531.67 163.503Z" fill="#C8CACE"/><path d="M1558.57 161.763V155.572C1558.57 150.929 1555.66 148.221 1550.83 148.221C1545.8 148.221 1543.09 151.316 1542.89 154.412H1547.73C1547.92 153.638 1548.7 152.477 1550.83 152.477C1552.76 152.477 1553.92 153.251 1553.92 155.572H1549.28C1545.02 155.572 1542.51 157.701 1542.51 161.57C1542.51 165.439 1545.22 168.148 1549.28 168.148C1552.18 168.148 1553.73 166.794 1554.5 165.826C1555.08 166.987 1556.44 167.761 1558.37 167.761H1560.11V163.505C1558.95 163.118 1558.57 162.731 1558.57 161.763ZM1553.73 160.603C1553.73 162.731 1552.18 163.892 1550.25 163.892C1548.51 163.892 1547.15 163.311 1547.15 161.376C1547.15 159.635 1548.7 159.248 1549.86 159.248H1553.73V160.603Z" fill="#C8CACE"/><path d="M1578.88 151.508H1573.66V146.285H1586.04V141.642H1568.82V167.566H1578.88C1584.68 167.566 1587.78 164.664 1587.78 159.441C1587.97 154.604 1584.68 151.508 1578.88 151.508ZM1578.69 162.729H1573.66V156.152H1578.69C1581.4 156.152 1582.75 157.312 1582.75 159.441C1582.75 161.569 1581.4 162.729 1578.69 162.729Z" fill="#C8CACE"/><path d="M1606.16 161.763V155.572C1606.16 150.929 1603.26 148.221 1598.42 148.221C1593.39 148.221 1590.68 151.316 1590.49 154.412H1595.33C1595.52 153.638 1596.29 152.477 1598.42 152.477C1600.36 152.477 1601.52 153.251 1601.52 155.572H1596.87C1592.62 155.572 1590.1 157.701 1590.1 161.57C1590.1 165.439 1592.81 168.148 1596.87 168.148C1599.77 168.148 1601.32 166.794 1602.1 165.826C1602.68 166.987 1604.03 167.761 1605.97 167.761H1607.71V163.505C1606.55 163.118 1606.16 162.731 1606.16 161.763ZM1601.32 160.603C1601.32 162.731 1599.77 163.892 1597.84 163.892C1596.1 163.892 1594.74 163.311 1594.74 161.376C1594.74 159.635 1596.29 159.248 1597.45 159.248H1601.32V160.603V160.603Z" fill="#C8CACE"/><path d="M1480.41 174.725H1455.06V179.948H1480.41V174.725Z" fill="#C8CACE"/><path d="M1472.48 145.124C1471.7 142.996 1470.93 141.255 1468.03 141.255C1465.12 141.255 1464.16 142.996 1463.38 145.124L1455.64 167.566H1460.87L1462.61 162.343H1472.67L1474.41 167.566H1480.02L1472.48 145.124ZM1464.16 157.7L1467.64 147.059H1467.83L1471.12 157.7H1464.16Z" fill="#C8CACE"/><path fill-rule="evenodd" clip-rule="evenodd" d="M1720.71 156.197C1720.85 156.944 1720.91 157.712 1720.91 158.496C1720.91 165.584 1715.26 171.33 1708.3 171.334C1701.34 171.334 1695.69 165.588 1695.69 158.5C1695.69 151.413 1701.34 145.667 1708.3 145.667C1711.3 145.667 1714.06 146.732 1716.23 148.515L1713.77 150.352C1712.22 149.266 1710.33 148.631 1708.31 148.631C1702.95 148.631 1698.6 153.06 1698.6 158.5C1698.6 163.941 1702.95 168.37 1708.31 168.37C1713.65 168.37 1718 163.941 1718 158.5C1718 158.414 1718 158.323 1718 158.236L1720.71 156.197ZM1719.79 153.204C1719.39 152.288 1718.88 151.433 1718.28 150.649L1708.3 158.137L1703.5 155.074V158.756L1708.3 161.819L1719.79 153.204ZM1739.28 162.792C1738.46 163.254 1737.51 163.5 1736.53 163.5C1733.66 163.5 1731.58 161.396 1731.58 158.503C1731.58 155.605 1733.67 153.505 1736.53 153.505C1737.61 153.505 1738.59 153.821 1739.42 154.436L1741.7 152.708L1741.56 152.57C1740.22 151.369 1738.44 150.733 1736.41 150.733C1734.2 150.733 1732.2 151.498 1730.77 152.886C1729.33 154.278 1728.54 156.245 1728.54 158.418C1728.54 160.599 1729.33 162.594 1730.76 164.031C1732.2 165.471 1734.2 166.268 1736.39 166.268C1738.68 166.268 1740.68 165.447 1742.04 163.95C1740.98 163.161 1739.98 162.392 1739.98 162.392L1739.28 162.792ZM1752.2 156.791H1748.24V153.321H1754.57L1757.99 150.734H1744.98L1744.98 166.268H1751.78C1755.6 166.268 1757.79 164.492 1757.79 161.386C1757.79 158.422 1755.81 156.791 1752.2 156.791ZM1751.63 163.682H1748.24V159.377H1751.63C1753.71 159.377 1754.67 160.1 1754.67 161.528C1754.67 162.993 1753.65 163.682 1751.63 163.682ZM1768.85 153.321L1772.26 150.734H1760.83L1760.83 166.268H1772.26V163.682H1764.09V159.705H1771.06V157.119H1764.09V153.321H1768.85ZM1775.3 150.734H1781.52C1785.48 150.734 1787.95 152.868 1787.95 156.297C1787.95 159.722 1785.49 161.868 1781.52 161.868H1778.56V166.268H1775.3V150.734ZM1778.56 159.282H1781.45C1783.54 159.282 1784.69 158.223 1784.69 156.301C1784.69 154.379 1783.53 153.321 1781.45 153.321H1778.56V159.282ZM1823.55 150.733L1829.78 166.268H1826.9L1825.45 162.581H1818.5L1817.07 166.268H1814.33L1820.48 150.733H1823.55ZM1819.48 160.032H1824.46L1821.97 153.664L1819.48 160.032ZM1809.5 154.595L1804.63 162.852H1803.27L1798.29 154.707V166.268H1795.58V150.734H1799L1804.02 159.19L1809 150.734H1812.21V166.268H1809.5V154.595ZM1834.63 166.268V161.427H1836.97C1841.4 161.427 1843.79 159.609 1843.79 155.993C1843.79 152.485 1841.75 150.733 1836.97 150.733H1831.93V166.268H1834.63ZM1834.63 158.878V153.286H1837.21C1839.84 153.286 1840.97 154.017 1840.97 155.927C1840.97 158.035 1839.68 158.878 1837.16 158.878H1834.63ZM1849.48 166.268H1846.78V150.733H1849.48V157.259H1851.75L1856.63 150.733H1859.92L1854.14 158.123L1860.85 166.268H1857.38L1851.89 159.542H1849.48V166.268ZM1865.7 159.542H1872.67V156.989H1865.7V153.286H1873.47V150.733H1862.99V166.268H1873.7V163.715H1865.7V159.542ZM1888.19 153.286H1883.08V166.268H1880.37V153.286H1875.35V150.733H1888.19V153.286Z" fill="#C8CACE"/><path fill-rule="evenodd" clip-rule="evenodd" d="M1989.73 170.469V146.473H2000.37C2001.45 146.438 2002.53 146.623 2003.54 147.016C2004.55 147.408 2005.48 148.001 2006.25 148.758C2007.01 149.478 2007.61 150.349 2008.02 151.314C2008.42 152.28 2008.62 153.319 2008.6 154.365C2008.61 155.279 2008.45 156.187 2008.15 157.049C2007.91 157.768 2007.54 158.442 2007.08 159.045C2006.73 159.547 2006.33 160.015 2005.89 160.442C2005.56 160.752 2005.19 161.011 2004.79 161.21L2004.36 161.439L2009.5 170.519H2004.01L1999.33 162.108H1994.91V170.519L1989.73 170.469ZM2003.46 154.365C2003.48 153.544 2003.18 152.747 2002.62 152.147C2002.06 151.548 2001.29 151.194 2000.47 151.162H1994.91V157.448H2000.2C2000.63 157.48 2001.07 157.421 2001.48 157.273C2001.89 157.125 2002.27 156.892 2002.58 156.59C2002.88 156.303 2003.11 155.956 2003.26 155.573C2003.41 155.189 2003.48 154.777 2003.46 154.365ZM1978.78 164.808H1969.52L1967.45 170.465H1961.98L1971.35 146.469H1976.94L1986.31 170.465H1980.83L1978.78 164.808ZM1977.06 160.358L1974.16 152.545L1971.23 160.358H1977.06ZM2032.83 146.469H2010.76V151.158H2019.25V170.465H2024.46V151.158H2032.83V146.469ZM2052.77 170.465H2036.5V146.469H2041.62V165.855H2052.77V170.465ZM2056.86 146.469V170.465H2062.01V146.469H2056.86ZM2066.89 146.469H2082.73V151.158H2072.05V156.446H2080.73V161.126H2072.05V170.505H2066.89V146.469ZM2103.14 165.855H2091.93L2091.89 160.527H2101.57V155.848H2091.81V151.158H2102.78V146.469H2086.77V170.465H2103.14V165.855Z" fill="#C8CACE"/><path fill-rule="evenodd" clip-rule="evenodd" d="M2230.55 153.706C2228.01 153.706 2227.09 153.122 2227.09 150.713V144.142C2227.09 141.659 2227.94 141.148 2230.55 141.148H2237.4V139.25H2227.09C2223.63 139.25 2221.94 140.929 2221.94 144.215V150.786C2221.94 154.071 2223.63 155.751 2227.09 155.751H2237.4V153.852H2230.55V153.706ZM2239.71 176.071L2230.01 166.433L2236.94 159.643H2233.86L2227.17 166.287V159.643H2224.55C2223.17 159.643 2221.94 160.739 2221.94 162.126V176.144H2224.55C2226.01 176.144 2227.17 175.049 2227.17 173.662V168.843L2234.17 176.144H2239.71V176.071ZM2348.71 171.835C2348.71 169.353 2347.1 169.207 2346.4 169.207H2341.48V174.463H2346.4C2347.17 174.463 2348.71 174.317 2348.71 171.835ZM2341.48 166.505V167.892L2345.79 167.965C2346.48 167.965 2347.94 167.965 2347.94 165.994C2347.94 164.169 2346.48 164.023 2345.79 164.023H2344.33C2342.17 164.023 2341.48 164.461 2341.48 166.505ZM2337.17 166.432C2337.17 163.731 2338.63 162.343 2341.48 162.343V162.27H2348.4C2349.94 162.27 2352.25 163.074 2352.25 165.702C2352.25 166.943 2351.71 167.819 2351.02 168.33C2352.02 168.988 2352.94 170.156 2352.94 171.908C2352.94 174.61 2350.64 175.997 2349.1 175.997H2337.17V166.432ZM2361.48 169.209C2360.79 169.209 2359.33 169.355 2359.33 171.838C2359.33 174.393 2360.71 174.466 2361.48 174.466H2365.79V169.209H2361.48ZM2358.87 176.072C2357.33 176.072 2355.02 174.758 2355.02 171.984C2355.02 169.209 2357.25 167.895 2358.87 167.895H2365.79V166.508C2365.79 164.463 2365.1 164.025 2362.94 164.025H2357.17V162.419H2365.79C2368.64 162.419 2370.1 163.733 2370.1 166.508V176.072H2358.87ZM2288.94 174.467C2291.1 174.467 2291.79 174.029 2291.79 171.984V166.508C2291.79 164.464 2291.1 164.026 2288.94 164.026H2286.1C2283.94 164.026 2283.25 164.464 2283.25 166.508V171.984C2283.25 174.029 2283.94 174.467 2286.1 174.467H2288.94ZM2283.17 162.347H2291.79C2294.64 162.347 2296.1 163.734 2296.1 166.435V171.911C2296.1 174.613 2294.64 176 2291.79 176H2283.17C2280.33 176 2278.87 174.686 2278.87 171.911V166.435C2278.87 163.734 2280.33 162.347 2283.17 162.347ZM2253.17 171.984C2253.17 174.029 2252.47 174.467 2250.32 174.467H2247.47C2245.32 174.467 2244.63 174.029 2244.63 171.984V166.508C2244.63 164.464 2245.32 164.026 2247.47 164.026H2250.32C2252.47 164.026 2253.17 164.464 2253.17 166.508V171.984ZM2253.17 162.347H2244.55C2241.7 162.347 2240.24 163.734 2240.24 166.435V171.911C2240.24 174.686 2241.7 176 2244.55 176H2253.17C2256.01 176 2257.47 174.613 2257.47 171.911V166.435C2257.47 163.734 2256.09 162.347 2253.17 162.347ZM2264.94 169.209H2269.94C2270.63 169.209 2272.09 169.136 2272.09 166.581C2272.09 164.098 2270.63 163.952 2269.94 163.952H2267.78C2265.63 163.952 2264.94 164.39 2264.94 166.435V169.209ZM2272.47 170.596H2264.86V174.101C2264.86 175.196 2263.86 176.145 2262.7 176.145H2260.55V166.508C2260.55 163.806 2262.01 162.419 2264.86 162.419H2272.47C2274.09 162.419 2276.32 163.733 2276.32 166.508C2276.32 169.209 2274.01 170.596 2272.47 170.596ZM2304.55 162.347C2301.71 162.347 2300.24 163.734 2300.24 166.435V173.298C2300.24 174.248 2299.63 174.467 2298.78 174.467V176.073H2302.4C2303.55 176.073 2304.48 175.197 2304.55 174.102V166.508C2304.55 164.464 2305.24 164.026 2307.4 164.026H2311.24V176.146H2313.4C2314.55 176.146 2315.55 175.197 2315.55 174.102V162.42L2304.55 162.347ZM2326.17 164.025C2324.02 164.025 2323.33 164.463 2323.33 166.508V169.282H2328.56C2329.25 169.282 2330.71 169.136 2330.71 166.654C2330.71 164.171 2329.25 164.025 2328.56 164.025H2326.17ZM2335.1 166.508C2335.1 169.209 2332.79 170.596 2331.25 170.596H2323.33V171.984C2323.33 174.028 2324.02 174.466 2326.17 174.466H2332.87V176.072H2323.33C2320.48 176.072 2319.02 174.758 2319.02 171.984V166.508C2319.02 163.806 2320.48 162.419 2323.33 162.419H2331.25C2332.79 162.419 2335.1 163.733 2335.1 166.508ZM2324.03 151.369C2324.03 148.886 2325.49 148.74 2326.18 148.74H2331.1V153.997H2326.18C2325.49 153.997 2324.03 153.924 2324.03 151.369ZM2319.72 151.515C2319.72 154.289 2321.95 155.604 2323.56 155.604H2335.41V146.039C2335.41 143.265 2333.95 141.95 2331.1 141.95H2321.87V143.557H2328.26C2330.41 143.557 2331.1 143.995 2331.1 146.039V147.426H2323.56C2322.03 147.426 2319.72 148.74 2319.72 151.515ZM2291.87 147.574L2299.95 155.605L2295.33 155.678L2289.48 149.545V153.56C2289.48 154.656 2288.48 155.605 2287.33 155.605H2285.18V149.472L2279.33 155.605H2274.71L2282.79 147.574L2277.02 141.879H2279.56L2285.18 147.354V143.923C2285.18 142.828 2286.18 141.879 2287.33 141.879H2289.48V147.354L2295.1 141.879H2297.64L2291.87 147.574ZM2314.1 141.879C2312.95 141.879 2311.95 142.828 2311.95 143.923V147.354H2305.26V141.879H2303.1C2301.95 141.879 2300.95 142.828 2300.95 143.923V155.605H2303.1C2304.26 155.605 2305.26 154.656 2305.26 153.56V148.742H2311.95V155.605H2314.1C2315.34 155.605 2316.26 154.656 2316.26 153.56V141.879H2314.1ZM2251.02 143.923C2251.02 142.828 2252.02 141.879 2253.17 141.879H2255.33V153.56C2255.33 154.656 2254.33 155.605 2253.17 155.605H2251.02V148.742H2243.71V153.56C2243.71 154.656 2242.71 155.605 2241.56 155.605H2239.4V143.923C2239.4 142.828 2240.4 141.879 2241.56 141.879H2243.71V147.354H2251.02V143.923ZM2266.02 143.557C2263.87 143.557 2263.18 143.995 2263.18 146.039H2263.1V148.813H2269.02C2269.72 148.813 2271.18 148.667 2271.18 146.185C2271.18 143.703 2269.72 143.557 2269.02 143.557H2266.02ZM2275.49 146.039C2275.49 148.74 2273.18 150.128 2271.64 150.128H2263.1V151.515C2263.1 153.559 2263.79 153.997 2265.95 153.997H2273.26V155.604H2263.1C2260.25 155.604 2258.79 154.289 2258.79 151.515V146.039C2258.79 143.338 2260.25 141.95 2263.1 141.95H2271.64C2273.18 141.95 2275.49 143.265 2275.49 146.039ZM2350.18 148.744H2344.56C2343.87 148.744 2342.41 148.598 2342.41 146.115C2342.41 143.633 2343.87 143.487 2344.56 143.487H2350.18V148.744ZM2341.87 141.881C2340.33 141.881 2338.02 143.268 2338.02 145.969C2338.02 148.744 2340.25 150.058 2341.87 150.058H2344.79L2338.95 155.534H2343.02L2348.48 150.058H2350.25V155.534H2352.41C2353.56 155.534 2354.56 154.585 2354.56 153.489V141.808H2341.87V141.881Z" fill="#C8CACE"/><path fill-rule="evenodd" clip-rule="evenodd" d="M2188.06 168.184C2193.44 170.126 2194.22 170.126 2199.61 168.184C2200 162.358 2203.91 156.144 2208.12 152.552C2204.21 153.232 2200.59 154.785 2197.94 157.698C2197.85 153.62 2195.5 148.183 2193.73 145.755C2191.97 148.28 2189.62 153.62 2189.53 157.698C2186.88 154.785 2183.36 153.329 2179.35 152.552C2183.75 156.144 2187.67 162.358 2188.06 168.184ZM2178.17 139.25H2209.39C2210.96 139.25 2212.23 140.512 2212.23 142.066V173.33C2212.23 174.884 2210.96 176.146 2209.39 176.146H2178.17C2176.61 176.146 2175.34 174.884 2175.34 173.33V142.066C2175.34 140.512 2176.61 139.25 2178.17 139.25Z" fill="#C8CACE"/><path fill-rule="evenodd" clip-rule="evenodd" d="M2481.73 126.417H2545.89V190.584H2481.73V126.417ZM2496.53 141.145L2501.25 131.351H2506.4V146.156H2502.79V135.562L2498.18 144.511H2494.89L2490.28 135.562V146.156H2486.67V131.351H2491.82L2496.53 141.145ZM2524.48 134.302V131.351H2540.99V134.302H2534.54L2534.52 146.156H2530.91L2530.93 134.302H2524.48ZM2537.36 180.707C2537.27 181.295 2537.04 181.786 2536.65 182.148C2536.29 182.495 2535.81 182.737 2535.21 182.88C2534.61 183.016 2533.74 183.099 2532.81 183.099C2531.89 183.099 2531.01 182.978 2530.29 182.729C2529.6 182.495 2529.05 182.08 2528.66 181.499C2528.27 180.918 2528.08 180.073 2528.08 179.002V177.485C2528.08 176.406 2528.27 175.568 2528.66 174.987C2529.05 174.406 2529.6 173.999 2530.29 173.757C2531.01 173.516 2531.86 173.388 2532.81 173.388C2533.77 173.388 2534.61 173.471 2535.21 173.607C2535.81 173.742 2536.29 173.991 2536.65 174.338C2537.03 174.708 2537.27 175.191 2537.36 175.78H2540.98C2540.88 174.557 2540.47 173.516 2539.74 172.686C2539.08 171.924 2538.16 171.366 2537.02 171.026C2535.92 170.694 2534.47 170.52 2532.82 170.52C2531.09 170.52 2529.59 170.769 2528.35 171.26C2527.1 171.758 2526.14 172.588 2525.46 173.727C2524.82 174.821 2524.49 176.278 2524.47 178.066V178.232L2524.67 178.239L2524.47 178.247V178.413C2524.49 180.201 2524.82 181.658 2525.46 182.752C2526.13 183.891 2527.1 184.721 2528.35 185.219C2529.58 185.709 2531.09 185.958 2532.82 185.958C2534.55 185.958 2535.92 185.785 2537.02 185.453C2538.16 185.113 2539.08 184.555 2539.74 183.793C2540.47 182.963 2540.88 181.922 2540.98 180.699L2537.36 180.707Z" fill="#C8CACE"/><g clip-path="url(#clip4_9932_5780)"><path d="M2775.59 167.039V167.383H2779.91V142.535H2775.59V164.403C2775.5 164.41 2775.42 164.417 2775.36 164.417C2774.66 164.417 2774.17 164.155 2773.9 163.646C2773.62 163.13 2773.49 162.372 2773.49 161.388V153.135C2773.49 151.924 2773.29 150.843 2772.88 149.907C2772.48 148.971 2771.89 148.186 2771.11 147.546C2770.34 146.913 2769.38 146.431 2768.25 146.114C2767.11 145.791 2765.82 145.626 2764.36 145.626C2762.77 145.626 2761.4 145.777 2760.24 146.08C2759.09 146.39 2758.12 146.81 2757.34 147.346C2756.57 147.89 2755.96 148.53 2755.53 149.267C2755.09 150.003 2754.79 150.816 2754.65 151.703L2759.16 152.02C2759.25 151.352 2759.44 150.781 2759.71 150.32C2759.98 149.859 2760.33 149.48 2760.77 149.191C2761.2 148.902 2761.7 148.696 2762.27 148.572C2762.86 148.441 2763.49 148.386 2764.2 148.386C2765.8 148.386 2767.02 148.792 2767.84 149.59C2768.66 150.396 2769.07 151.669 2769.07 153.411V154.278L2763.7 154.354C2762.32 154.381 2761.02 154.519 2759.81 154.76C2758.6 155.001 2757.53 155.393 2756.62 155.916C2756.6 155.923 2756.58 155.937 2756.57 155.944C2756.29 155.407 2755.93 154.918 2755.48 154.477C2754.88 153.865 2754.12 153.362 2753.24 152.963C2752.35 152.571 2751.32 152.302 2750.17 152.172C2751.09 151.958 2751.9 151.648 2752.58 151.229C2753.27 150.816 2753.84 150.32 2754.3 149.749C2754.77 149.17 2755.1 148.53 2755.33 147.814C2755.55 147.099 2755.66 146.348 2755.66 145.536C2755.66 144.318 2755.44 143.272 2754.97 142.397C2754.5 141.516 2753.82 140.794 2752.93 140.229C2752.04 139.665 2750.96 139.245 2749.68 138.97C2748.4 138.701 2746.94 138.563 2745.31 138.563H2734.43V167.363H2746.52C2747.98 167.363 2749.37 167.211 2750.67 166.915C2751.98 166.612 2753.13 166.144 2754.12 165.497C2754.36 165.339 2754.59 165.167 2754.81 164.988C2755 165.243 2755.22 165.484 2755.46 165.704C2756.06 166.248 2756.79 166.661 2757.67 166.936C2758.54 167.218 2759.56 167.363 2760.71 167.363C2762.81 167.363 2764.53 166.963 2765.88 166.165C2767.23 165.367 2768.29 164.272 2769.07 162.889H2769.21C2769.26 163.605 2769.38 164.231 2769.56 164.761C2769.74 165.291 2770 165.738 2770.33 166.096C2770.67 166.454 2771.1 166.723 2771.62 166.902C2772.13 167.081 2772.76 167.17 2773.48 167.17C2774.09 167.17 2774.68 167.136 2775.25 167.074C2775.36 167.067 2775.47 167.053 2775.59 167.039ZM2739.04 141.929H2745.11C2747.08 141.929 2748.56 142.274 2749.55 142.962C2750.53 143.65 2751.02 144.71 2751.02 146.149C2751.02 146.851 2750.91 147.477 2750.69 148.042C2750.47 148.599 2750.13 149.081 2749.65 149.487C2749.17 149.893 2748.56 150.203 2747.82 150.416C2747.08 150.637 2746.19 150.74 2745.15 150.74H2739.04V141.929ZM2752.19 161.306C2751.83 161.959 2751.35 162.489 2750.74 162.889C2750.13 163.295 2749.41 163.584 2748.59 163.756C2747.77 163.935 2746.89 164.024 2745.96 164.024H2739.04V153.968H2745.69C2746.7 153.968 2747.62 154.058 2748.48 154.25C2749.34 154.436 2750.08 154.725 2750.7 155.124C2751.33 155.517 2751.82 156.033 2752.17 156.646C2752.53 157.265 2752.71 158.008 2752.71 158.883C2752.71 159.839 2752.54 160.652 2752.19 161.306ZM2769.06 158.249C2769.06 158.938 2768.92 159.64 2768.63 160.356C2768.34 161.078 2767.9 161.732 2767.32 162.317C2766.74 162.902 2766.02 163.384 2765.14 163.763C2764.27 164.141 2763.25 164.327 2762.1 164.327C2760.8 164.327 2759.83 164.038 2759.18 163.446C2758.53 162.861 2758.2 162.021 2758.2 160.941C2758.2 160.149 2758.38 159.495 2758.74 158.979C2759.09 158.463 2759.58 158.05 2760.19 157.74C2760.8 157.43 2761.51 157.21 2762.32 157.079C2763.13 156.948 2764 156.866 2764.91 156.838L2769.06 156.763V158.249Z" fill="#C8CACE"/><path d="M2779.87 137.647H2775.59V141.351H2779.87V137.647Z" fill="#C8CACE"/><path d="M2820.05 167.376V137.647H2815.74V164.334C2815.34 164.223 2815.05 163.989 2814.86 163.631C2814.58 163.115 2814.45 162.358 2814.45 161.374V153.135C2814.45 151.923 2814.24 150.843 2813.84 149.906C2813.44 148.97 2812.85 148.186 2812.07 147.545C2811.3 146.912 2810.34 146.43 2809.21 146.114C2808.08 145.79 2806.78 145.625 2805.32 145.625C2803.73 145.625 2802.36 145.777 2801.2 146.079C2800.79 146.189 2800.39 146.313 2800.03 146.451H2795.6L2785.73 155.936V137.647H2781.41V167.376H2785.73V159.97L2788.44 157.671L2796.18 167.376H2801.15L2801.15 167.362C2801.32 167.369 2801.5 167.376 2801.68 167.376C2803.78 167.376 2805.5 166.977 2806.85 166.178C2808.19 165.38 2809.25 164.285 2810.03 162.902H2810.17C2810.23 163.618 2810.34 164.244 2810.52 164.774C2810.7 165.304 2810.95 165.752 2811.29 166.109C2811.63 166.467 2812.06 166.736 2812.57 166.915C2813.09 167.094 2813.71 167.183 2814.44 167.183C2814.89 167.183 2815.31 167.163 2815.73 167.128V167.376H2820.05ZM2810.03 158.249C2810.03 158.937 2809.89 159.639 2809.6 160.355C2809.31 161.078 2808.87 161.732 2808.3 162.317C2807.72 162.902 2807 163.384 2806.12 163.762C2805.24 164.141 2804.23 164.327 2803.08 164.327C2801.78 164.327 2800.8 164.038 2800.15 163.446C2799.5 162.861 2799.18 162.021 2799.18 160.94C2799.18 160.149 2799.36 159.495 2799.72 158.978C2800.07 158.462 2800.56 158.049 2801.17 157.739C2801.78 157.43 2802.49 157.209 2803.3 157.079C2804.11 156.948 2804.97 156.865 2805.88 156.838L2810.04 156.762V158.249H2810.03ZM2810.03 154.284L2804.66 154.36C2803.28 154.387 2801.98 154.525 2800.77 154.766C2799.56 155.007 2798.49 155.399 2797.57 155.922C2796.66 156.452 2795.93 157.141 2795.4 157.994C2795.13 158.435 2794.93 158.93 2794.79 159.481L2791.26 155.089L2795.8 150.863C2795.72 151.132 2795.66 151.414 2795.61 151.703L2800.12 152.02C2800.21 151.352 2800.4 150.781 2800.67 150.319C2800.94 149.858 2801.29 149.48 2801.73 149.191C2802.16 148.901 2802.66 148.695 2803.24 148.571C2803.82 148.44 2804.45 148.385 2805.16 148.385C2806.76 148.385 2807.98 148.791 2808.8 149.59C2809.63 150.395 2810.03 151.669 2810.03 153.41V154.284V154.284Z" fill="#C8CACE"/><path d="M2736.01 174.486H2738.92V173.695H2736.01V171.334H2739.08V170.528H2735.04V177.99H2739.25V177.177H2736.01V174.486Z" fill="#C8CACE"/><path d="M2743.8 170.528H2742.83V177.99H2747V177.177H2743.8V170.528Z" fill="#C8CACE"/><path d="M2751.37 174.486H2754.28V173.695H2751.37V171.334H2754.45V170.528H2750.4V177.99H2754.62V177.177H2751.37V174.486Z" fill="#C8CACE"/><path d="M2761.71 171.211C2762.33 171.211 2762.85 171.341 2763.22 171.52L2763.46 170.736C2763.2 170.605 2762.61 170.405 2761.68 170.405C2759.36 170.405 2757.77 171.988 2757.77 174.322C2757.77 176.765 2759.36 178.094 2761.47 178.094C2762.38 178.094 2763.1 177.915 2763.45 177.743L2763.25 176.979C2762.86 177.165 2762.26 177.288 2761.67 177.288C2759.85 177.288 2758.79 176.118 2758.79 174.287C2758.78 172.333 2759.95 171.211 2761.71 171.211Z" fill="#C8CACE"/><path d="M2766.42 171.347H2768.7V177.99H2769.67V171.347H2771.96V170.528H2766.42V171.347Z" fill="#C8CACE"/><path d="M2778.34 174.43V174.403C2779.13 174.135 2779.75 173.487 2779.75 172.496C2779.75 171.918 2779.53 171.409 2779.16 171.078C2778.7 170.659 2778.03 170.473 2777 170.473C2776.33 170.473 2775.63 170.528 2775.14 170.624V177.982H2776.1V174.754H2777.02C2777.9 174.788 2778.3 175.174 2778.52 176.206C2778.73 177.136 2778.9 177.776 2779.02 177.989H2780.02C2779.86 177.7 2779.69 176.984 2779.44 175.945C2779.26 175.167 2778.92 174.63 2778.34 174.43ZM2777.09 174.024H2776.1V171.299C2776.26 171.257 2776.6 171.209 2777.06 171.209C2778.08 171.223 2778.78 171.643 2778.78 172.606C2778.78 173.46 2778.13 174.024 2777.09 174.024Z" fill="#C8CACE"/><path d="M2786.5 170.405C2784.5 170.405 2783.02 171.954 2783.02 174.322C2783.02 176.579 2784.41 178.108 2786.39 178.108C2788.31 178.108 2789.87 176.745 2789.87 174.177C2789.87 171.968 2788.55 170.405 2786.5 170.405ZM2786.45 177.323C2784.92 177.323 2784.05 175.898 2784.05 174.301C2784.05 172.663 2784.86 171.19 2786.45 171.19C2788.06 171.19 2788.85 172.739 2788.85 174.225C2788.85 175.919 2787.98 177.323 2786.45 177.323Z" fill="#C8CACE"/><path d="M2798.16 173.646C2798.16 174.81 2798.18 175.718 2798.27 176.709L2798.25 176.723C2797.9 175.959 2797.46 175.174 2796.9 174.3L2794.5 170.528H2793.45V177.99H2794.36V174.803C2794.36 173.564 2794.34 172.669 2794.28 171.726L2794.32 171.712C2794.7 172.518 2795.19 173.371 2795.72 174.204L2798.1 177.99H2799.08V170.528H2798.17V173.646H2798.16Z" fill="#C8CACE"/><path d="M2804.06 170.528H2803.09V177.99H2804.06V170.528Z" fill="#C8CACE"/><path d="M2811.58 171.211C2812.2 171.211 2812.73 171.341 2813.09 171.52L2813.33 170.736C2813.07 170.605 2812.48 170.405 2811.55 170.405C2809.23 170.405 2807.64 171.988 2807.64 174.322C2807.64 176.765 2809.23 178.094 2811.34 178.094C2812.25 178.094 2812.96 177.915 2813.31 177.743L2813.11 176.979C2812.73 177.165 2812.12 177.288 2811.54 177.288C2809.71 177.288 2808.66 176.118 2808.66 174.287C2808.65 172.333 2809.82 171.211 2811.58 171.211Z" fill="#C8CACE"/><path d="M2819.09 173.757C2818.06 173.358 2817.6 173.014 2817.6 172.319C2817.6 171.809 2817.99 171.204 2819.01 171.204C2819.69 171.204 2820.19 171.424 2820.44 171.555L2820.7 170.77C2820.37 170.584 2819.81 170.405 2819.04 170.405C2817.58 170.405 2816.62 171.266 2816.62 172.429C2816.62 173.482 2817.37 174.108 2818.6 174.542C2819.61 174.928 2820.01 175.327 2820.01 176.029C2820.01 176.779 2819.43 177.302 2818.44 177.302C2817.77 177.302 2817.14 177.082 2816.7 176.814L2816.46 177.619C2816.86 177.887 2817.65 178.094 2818.38 178.094C2820.15 178.094 2821 177.096 2821 175.946C2821 174.852 2820.36 174.246 2819.09 173.757Z" fill="#C8CACE"/><path d="M2708.5 138.486C2707.72 138.486 2706.94 138.535 2706.17 138.624H2706.21V146.581L2719.22 153.987C2721.7 155.398 2723.18 157.601 2723.29 160.024C2723.36 161.476 2722.91 162.894 2722.05 164.147C2721.19 165.455 2719.41 166.652 2719.41 166.652L2712.31 171.588C2710.23 173.246 2708.58 173.887 2707.99 174.1C2707.4 174.313 2705.02 174.637 2703.62 173.928C2702.22 173.219 2701.96 172.84 2701.16 171.732C2700.36 170.624 2700.15 168.752 2700.1 168.235C2700.05 167.719 2700.06 165.785 2700.06 165.785V140.372C2693.31 143.532 2688.66 150.346 2688.66 158.241C2688.66 169.151 2697.55 177.989 2708.5 177.989C2719.46 177.989 2728.35 169.144 2728.35 158.241C2728.35 147.331 2719.46 138.486 2708.5 138.486Z" fill="#C8CACE"/><path d="M2716.24 161.36C2716.91 160.898 2717.14 160.472 2717.13 160.293C2717.12 160.114 2716.85 159.714 2716.15 159.308L2706.21 153.65V167.451C2706.21 167.775 2706.25 168.022 2706.28 168.195C2706.45 168.119 2706.67 168.009 2706.93 167.823L2716.24 161.36Z" fill="#C8CACE"/></g><defs><clipPath id="clip0_9932_5780"><rect width="194.104" height="22.4583" fill="white" transform="translate(251.938 147.271)"/></clipPath><clipPath id="clip1_9932_5780"><rect width="192.5" height="36.8832" fill="white" transform="translate(492.562 140.06)"/></clipPath><clipPath id="clip2_9932_5780"><rect width="192.5" height="22.4583" fill="white" transform="translate(973.812 147.271)"/></clipPath><clipPath id="clip3_9932_5780"><rect width="194.104" height="38.5" fill="white" transform="translate(1214.44 139.25)"/></clipPath><clipPath id="clip4_9932_5780"><rect width="132.344" height="40.4594" fill="white" transform="translate(2688.67 137.646)"/></clipPath></defs></svg>